<svg width="22" height="24" viewBox="0 0 22 24" fill="none" xmlns="http://www.w3.org/2000/svg">
<path d="M16.079 5.27002C16.079 4.57796 15.9427 3.89267 15.6779 3.25329C15.413 2.6139 15.0248 2.03295 14.5355 1.54358C14.0461 1.05422 13.4652 0.666038 12.8258 0.401197C12.1864 0.136355 11.5011 4.34366e-05 10.809 4.33761e-05C10.117 4.33156e-05 9.43169 0.136355 8.79231 0.401196C8.15292 0.666037 7.57197 1.05422 7.0826 1.54358C6.59324 2.03295 6.20506 2.6139 5.94022 3.25329C5.67537 3.89267 5.53906 4.57796 5.53906 5.27002L6.75641 5.27002C6.75641 4.73782 6.86124 4.21083 7.0649 3.71915C7.26857 3.22746 7.56708 2.7807 7.9434 2.40438C8.31972 2.02806 8.76648 1.72955 9.25817 1.52588C9.74985 1.32222 10.2768 1.2174 10.809 1.2174C11.3412 1.2174 11.8682 1.32222 12.3599 1.52588C12.8516 1.72955 13.2984 2.02806 13.6747 2.40438C14.051 2.7807 14.3495 3.22746 14.5532 3.71915C14.7568 4.21083 14.8617 4.73782 14.8617 5.27002L16.079 5.27002Z" fill="#311164"/>
<path d="M21.1709 6.8816C21.1709 5.99148 20.4493 5.2699 19.5592 5.2699H2.05909C1.16897 5.2699 0.44738 5.99148 0.44738 6.8816V15.603C0.44738 20.2406 4.20687 24 8.84442 24H12.7739C17.4114 24 21.1709 20.2406 21.1709 15.603V6.8816Z" fill="#311164"/>
<path d="M4.07445 14.7526C4.51889 16.191 5.41217 17.4493 6.62347 18.3432C7.83477 19.2372 9.30046 19.7198 10.8059 19.7205C12.3114 19.7212 13.7775 19.2399 14.9897 18.3471C16.2018 17.4542 17.0962 16.1968 17.542 14.7588L14.8479 13.9236C14.5805 14.7862 14.044 15.5405 13.3169 16.0761C12.5898 16.6117 11.7103 16.9004 10.8072 16.9C9.90416 16.8996 9.02495 16.61 8.29833 16.0738C7.57172 15.5375 7.03587 14.7827 6.76927 13.9199L4.07445 14.7526Z" fill="#F3F4FF"/>
</svg>
