<svg width="157" height="70" viewBox="0 0 157 70" fill="none" xmlns="http://www.w3.org/2000/svg">
<path d="M43.9044 22.1615C43.9044 20.8414 43.6444 19.5342 43.1393 18.3146C42.6341 17.095 41.8936 15.9869 40.9602 15.0534C40.0267 14.12 38.9186 13.3795 37.699 12.8744C36.4794 12.3692 35.1722 12.1092 33.8521 12.1092C32.532 12.1092 31.2249 12.3692 30.0053 12.8744C28.7857 13.3795 27.6775 14.12 26.7441 15.0534C25.8106 15.9869 25.0702 17.095 24.565 18.3146C24.0598 19.5342 23.7998 20.8414 23.7998 22.1615L26.1219 22.1615C26.1219 21.1463 26.3218 20.1411 26.7103 19.2033C27.0988 18.2654 27.6682 17.4132 28.386 16.6954C29.1038 15.9776 29.956 15.4082 30.8939 15.0197C31.8318 14.6312 32.837 14.4312 33.8521 14.4312C34.8673 14.4312 35.8725 14.6312 36.8104 15.0197C37.7482 15.4082 38.6004 15.9776 39.3182 16.6954C40.0361 17.4132 40.6055 18.2654 40.9939 19.2033C41.3824 20.1411 41.5824 21.1463 41.5824 22.1615L43.9044 22.1615Z" fill="#FEC803"/>
<path d="M53.6172 25.2354C53.6172 23.5375 52.2408 22.1611 50.5429 22.1611H17.162C15.4641 22.1611 14.0877 23.5375 14.0877 25.2354V41.8712C14.0877 50.7172 21.2588 57.8883 30.1048 57.8883H37.6001C46.4461 57.8883 53.6172 50.7172 53.6172 41.8712V25.2354Z" fill="#576AFF"/>
<path d="M21.0054 40.2492C21.8532 42.9928 23.5571 45.393 25.8676 47.0982C28.1781 48.8034 30.9739 49.724 33.8455 49.7254C36.7171 49.7267 39.5137 48.8086 41.8258 47.1055C44.1379 45.4025 45.844 43.0039 46.6943 40.2611L41.5555 38.668C41.0455 40.3133 40.022 41.7521 38.6351 42.7737C37.2481 43.7954 35.5706 44.3461 33.848 44.3453C32.1254 44.3445 30.4483 43.7922 29.0623 42.7693C27.6763 41.7464 26.6542 40.3067 26.1457 38.6609L21.0054 40.2492Z" fill="#F9C338"/>
<path fill-rule="evenodd" clip-rule="evenodd" d="M126.133 35.1177C127.577 35.1177 128.748 36.2886 128.748 37.7329V51.6479C128.801 53.1705 130.067 54.3887 131.603 54.3887H133.671V54.3945H146.137C146.19 54.3945 146.242 54.3961 146.294 54.3992V54.383H148.36C149.93 54.383 151.202 53.1109 151.202 51.5418C151.202 50.0275 150.017 48.79 148.524 48.7053C148.512 48.7056 148.5 48.7058 148.489 48.7059C148.478 48.7061 148.467 48.7061 148.456 48.7061L136.939 48.7061C135.495 48.7061 134.324 47.5353 134.324 46.0909C134.324 44.9783 135.019 44.0279 135.998 43.6501L152.635 35.4268C153.93 34.7868 155.498 35.3176 156.138 36.6124C156.778 37.9072 156.247 39.4757 154.952 40.1157L148.162 43.4721H148.376C152.834 43.4721 156.447 47.0859 156.447 51.5437C156.447 56.0016 152.834 59.6153 148.376 59.6153H146.363C146.288 59.6217 146.213 59.625 146.137 59.625H132.708C132.651 59.625 132.593 59.6231 132.537 59.6194H131.588C127.296 59.6194 123.787 56.2706 123.531 52.0437C123.522 51.9557 123.517 51.8665 123.517 51.7762V51.7043C123.516 51.6521 123.516 51.5998 123.516 51.5474H123.517V37.7329C123.517 36.2886 124.688 35.1177 126.133 35.1177ZM121.151 52.0899C120.879 56.3013 117.376 59.6328 113.096 59.6328H111.013V59.6302C111.001 59.6304 110.989 59.6304 110.978 59.6304L77.6255 59.6304C76.1812 59.6304 75.0103 58.4596 75.0103 57.0152C75.0103 55.5709 76.1812 54.4 77.6255 54.4H110.978C111.012 54.4 111.047 54.4007 111.082 54.402H113.081C114.651 54.402 115.938 53.1299 115.938 51.5607H115.938V37.7415C115.938 36.2971 117.109 35.1262 118.554 35.1262C119.998 35.1262 121.169 36.2971 121.169 37.7415V51.7848C121.169 51.888 121.163 51.9898 121.151 52.0899ZM77.301 52.1374H110.961L110.97 52.1257C111.014 52.128 111.059 52.1291 111.104 52.1291C112.549 52.1291 113.72 50.9582 113.72 49.5139V37.7523C113.72 36.308 112.549 35.1371 111.104 35.1371C109.66 35.1371 108.489 36.308 108.489 37.7523V46.3072C108.468 46.8903 108.049 47.3554 107.478 47.3554H80.2148V37.7523C80.2148 36.308 79.044 35.1371 77.5996 35.1371C76.1553 35.1371 74.9844 36.308 74.9844 37.7523V49.5139C74.9844 50.8573 75.9972 51.9641 77.301 52.1123V52.1374ZM91.4929 39.5151C91.4929 39.3875 91.502 39.2621 91.5196 39.1393V36.009C91.5196 35.5335 91.9051 35.148 92.3806 35.148C92.8561 35.148 93.2416 35.5335 93.2416 36.009V37.0384C93.5163 36.941 93.812 36.888 94.1201 36.888H96.7988C98.2497 36.888 99.4259 38.0642 99.4259 39.5151C99.4259 40.9661 98.2497 42.1423 96.7988 42.1423H94.1201C94.0442 42.1423 93.9691 42.1391 93.8949 42.1328C93.8675 42.1354 93.8399 42.1367 93.8118 42.1367H93.2416V42.1391H91.5196V42.1367H91.0889C90.6134 42.1367 90.228 41.7513 90.228 41.2758C90.228 40.8003 90.6134 40.4149 91.0889 40.4149H91.5196V39.8909C91.502 39.7682 91.4929 39.6427 91.4929 39.5151ZM93.4128 39.5197C93.4128 39.0379 93.8034 38.6474 94.2852 38.6474H96.8177C97.2995 38.6474 97.6901 39.0379 97.6901 39.5197C97.6901 40.0015 97.2995 40.3921 96.8177 40.3921H94.2852C93.8034 40.3921 93.4128 40.0015 93.4128 39.5197Z" fill="#FEC803"/>
<path fill-rule="evenodd" clip-rule="evenodd" d="M128.827 11.778C128.209 10.4723 126.65 9.91455 125.344 10.5322C124.691 10.841 124.225 11.3853 124 12.0157L116.19 28.5218C115.573 29.8274 116.13 31.3866 117.436 32.0043C118.742 32.622 120.301 32.0643 120.918 30.7587L122.4 27.6281H130.405C130.449 27.6281 130.493 27.627 130.536 27.6249L132.019 30.7602C132.637 32.0658 134.196 32.6236 135.502 32.006C136.807 31.3884 137.365 29.8293 136.748 28.5236L128.827 11.778ZM128.064 22.3977H124.874L126.469 19.0266L128.064 22.3977ZM96.2055 12.907C96.2055 11.4627 97.3764 10.2918 98.8207 10.2918H98.8426H110.656C112.101 10.2918 113.272 11.4627 113.272 12.907C113.272 14.3514 112.101 15.5223 110.656 15.5223H101.458V18.6346H107.438C108.882 18.6346 110.053 19.8055 110.053 21.2499C110.053 22.6942 108.882 23.8651 107.438 23.8651H101.458V26.9853H110.656C112.101 26.9853 113.272 28.1561 113.272 29.6005C113.272 31.0448 112.101 32.2157 110.656 32.2157H98.9867C98.939 32.2183 98.8909 32.2196 98.8426 32.2196C98.6807 32.2196 98.5222 32.2049 98.3685 32.1768C97.1397 31.9625 96.2055 30.8906 96.2055 29.6005C96.2055 29.4854 96.2129 29.3721 96.2273 29.261V21.5894C96.2129 21.4783 96.2055 21.3649 96.2055 21.2499C96.2055 21.1348 96.2129 21.0215 96.2273 20.9103V13.2466C96.2129 13.1354 96.2055 13.0221 96.2055 12.907ZM144.576 12.907C144.576 11.4627 143.405 10.2918 141.961 10.2918C140.516 10.2918 139.345 11.4627 139.345 12.907V29.4983C139.344 29.5322 139.343 29.5662 139.343 29.6004C139.343 30.0168 139.441 30.4105 139.614 30.76C140.04 31.6247 140.931 32.2196 141.961 32.2196C142.009 32.2196 142.058 32.2183 142.106 32.2157H153.794C155.239 32.2157 156.41 31.0448 156.41 29.6004C156.41 28.1561 155.239 26.9852 153.794 26.9852H144.576V12.907ZM80.24 15.5209L83.2176 15.5209V15.5268C84.7381 15.5268 86.1964 16.1308 87.2716 17.206C88.3468 18.2812 88.9508 19.7395 88.9508 21.2601C88.9508 22.7806 88.3468 24.2389 87.2716 25.3141C86.1964 26.3893 84.7381 26.9933 83.2176 26.9933V27.0239H80.24L80.24 15.5209ZM83.544 32.2543C83.7514 32.2543 83.9531 32.2302 84.1466 32.1846C86.7141 31.9663 89.1342 30.8487 90.9702 29.0127C93.0264 26.9566 94.1815 24.1679 94.1815 21.2601C94.1815 18.3522 93.0264 15.5635 90.9702 13.5074C88.99 11.5271 86.3302 10.3826 83.539 10.3009C83.4615 10.2939 83.383 10.2904 83.3036 10.2904H77.6279C76.2559 10.2904 75.1306 11.347 75.0214 12.6908C75.0135 12.7734 75.0095 12.8571 75.0095 12.9418L75.0095 29.275C74.9929 29.394 74.9844 29.5156 74.9844 29.6391C74.9844 31.0834 76.1553 32.2543 77.5996 32.2543H77.6122L77.6247 32.2544L77.6373 32.2543H83.544Z" fill="#576AFF"/>
</svg>

