<svg width="23" height="18" viewBox="0 0 23 18" fill="none" xmlns="http://www.w3.org/2000/svg">
<path fill-rule="evenodd" clip-rule="evenodd" d="M10.7149 0.0771995C10.4692 0.170954 10.3816 0.37847 10.5069 0.569327C10.5969 0.70612 10.5588 0.715919 9.95805 0.711101C9.39791 0.706609 9.28456 0.730783 9.10152 0.894199C8.89716 1.07664 8.89062 1.11789 8.89062 2.22031C8.89062 3.27113 8.87911 3.35386 8.74023 3.30159C8.65756 3.27047 8.37715 3.20661 8.11719 3.15973C7.53281 3.06147 6.2149 2.81502 5.20494 3.40163L4.72575 3.65864C3.64088 4.24044 2.76766 5.40118 2.52824 6.57964L2.42598 7.08271L1.56858 7.11047C0.407563 7.14804 0.382812 7.17679 0.382812 8.48575C0.382812 9.61423 0.460501 9.77406 1.04522 9.84862C1.47551 9.90342 1.4187 9.71166 1.71751 12.12C2.19343 15.9552 2.26235 16.3933 2.44239 16.7286C2.68164 17.1744 3.16556 17.6178 3.64079 17.8266C4.03301 17.9991 4.07469 18 11.3828 18C18.6909 18 18.7326 17.9991 19.1248 17.8266C19.6001 17.6178 20.084 17.1744 20.3232 16.7286C20.5033 16.3933 20.5722 15.9552 21.0481 12.12C21.3469 9.71166 21.2901 9.90342 21.7204 9.84862C22.3051 9.77406 22.3828 9.61423 22.3828 8.48575C22.3828 7.17499 22.3594 7.14812 21.1874 7.11015L20.3203 7.08213V5.29975C20.3203 4.31949 20.2963 3.4579 20.2669 3.38522C20.1522 3.10118 19.7682 3.01404 18.6303 3.01404H17.5332L17.9843 2.57998C18.5135 2.0707 18.6181 1.73301 18.3887 1.27371C18.168 0.831806 17.874 0.690521 17.2332 0.718288C17.0872 0.724658 16.663 1.06848 15.8116 1.8707C14.6376 2.9768 14.5863 3.01404 14.2365 3.01404H13.875V2.04824C13.875 1.1285 13.8649 1.07354 13.6641 0.894199C13.4811 0.730783 13.3677 0.706609 12.8076 0.711101C12.2069 0.715919 12.1687 0.70612 12.2587 0.569327C12.3889 0.37112 12.2941 0.170381 12.024 0.0727881C11.7499 -0.0262744 10.9792 -0.0236597 10.7149 0.0771995ZM6.53757 3.01404C2.71767 3.01404 7.38495 3.01404 6.53757 3.01404V3.01404ZM13.1875 2.19737V3.01404H12.4098C11.6075 3.01404 11.1962 3.12821 11.095 3.37893C11.067 3.44818 11.0386 3.85374 11.0319 4.28029C11.0252 4.70676 11.0113 5.05572 11.001 5.05572C10.9907 5.05572 10.861 4.89525 10.7128 4.69908C10.5645 4.50292 10.2486 4.2014 10.0106 4.029L9.57812 3.71548V2.54813V1.38069H11.3828H13.1875V2.19737ZM17.6391 1.47869C17.6958 1.53259 17.7422 1.63386 17.7422 1.70369C17.7422 1.90875 11.5215 7.77247 11.3399 7.73858C11.2555 7.72282 11.1437 7.64556 11.0917 7.567C11.0101 7.44384 11.4365 7.00627 14.1758 4.40238C15.9241 2.74045 17.3954 1.38069 17.4453 1.38069C17.4951 1.38069 17.5823 1.42479 17.6391 1.47869ZM8.07422 3.86019C9.18462 4.14252 10.0932 4.84755 10.595 5.81621C10.8992 6.4034 10.8962 6.51953 10.5683 6.87282L10.3598 7.09741H7.85181H5.34381L5.39495 6.74281C5.42313 6.54779 5.56751 6.13896 5.71584 5.83434C5.98474 5.28227 5.98508 5.27998 5.81544 5.11869C5.53949 4.85645 5.29913 4.99562 5.02095 5.57864C4.88809 5.85705 4.72988 6.31267 4.66938 6.59115L4.55938 7.09741H3.85374H3.14802L3.2716 6.59409C3.58708 5.30906 4.69318 4.22182 6.04541 3.86738C6.57401 3.72887 7.54415 3.72544 8.07422 3.86019ZM12.8349 4.68626C12.2962 5.20183 11.8265 5.62446 11.791 5.62544C11.7555 5.6265 11.7266 5.20477 11.7266 4.68822V3.74904H12.7704H13.8143L12.8349 4.68626ZM19.6328 4.40238V5.05572H18.6617C17.6327 5.05572 17.4844 5.10375 17.4844 5.4367C17.4844 5.71919 17.735 5.79073 18.7248 5.79073H19.6328V6.44407V7.09741H16.4316L13.2305 7.09733L14.9968 5.42323L16.7633 3.74904H18.198H19.6328V4.40238ZM10.6446 8.13867C10.9108 8.41478 10.9825 8.44492 11.3721 8.44492C11.7554 8.44492 11.8415 8.41037 12.1342 8.13867L12.4643 7.83241H17.0798H21.6953V8.48575V9.13909H11.3828H1.07031V8.48575V7.83241H5.70982H10.3492L10.6446 8.13867ZM20.5781 9.91257C20.5781 9.98247 19.9765 14.8022 19.8846 15.4683C19.7702 16.2979 19.5512 16.7342 19.1 17.0313L18.7452 17.265H11.3828H4.02046L3.67774 17.0393C3.20234 16.7262 2.99574 16.3273 2.88531 15.5091C2.78305 14.7505 2.1875 9.97472 2.1875 9.91257C2.1875 9.89141 6.32539 9.8741 11.3828 9.8741C16.4402 9.8741 20.5781 9.89141 20.5781 9.91257ZM6.59772 10.5357C6.2642 10.6274 5.75013 11.1782 5.67794 11.5212C5.64881 11.6597 5.62586 12.6227 5.62689 13.6614C5.62895 15.743 5.68567 16.0207 6.18445 16.3935C6.94552 16.9625 7.98312 16.7217 8.38394 15.8831C8.5247 15.5884 8.54309 15.3236 8.54309 13.59C8.54309 11.8568 8.5247 11.5921 8.38445 11.3033C8.04766 10.6099 7.3764 10.3216 6.59772 10.5357ZM10.9102 10.5443C10.5496 10.664 10.2699 10.9211 10.0843 11.3033C9.94405 11.5921 9.92566 11.8568 9.92566 13.59C9.92566 15.3189 9.94422 15.5885 10.0835 15.8766C10.6151 16.9769 12.1555 16.9825 12.6794 15.8861C12.8219 15.5877 12.84 15.3299 12.84 13.59C12.84 11.8568 12.8216 11.5921 12.6813 11.3033C12.3444 10.6095 11.6324 10.3044 10.9102 10.5443ZM15.207 10.54C14.8434 10.6668 14.5656 10.9235 14.3812 11.3033C14.2409 11.5921 14.2225 11.8568 14.2225 13.59C14.2225 15.3189 14.2411 15.5885 14.3804 15.8766C14.8011 16.7472 15.8494 16.9786 16.6015 16.3668C17.1154 15.9488 17.1565 15.7137 17.1248 13.3774L17.0977 11.3718L16.8556 11.0704C16.7225 10.9047 16.5266 10.7149 16.4203 10.6488C16.1599 10.4866 15.5238 10.4296 15.207 10.54ZM7.56246 11.3813L7.77344 11.5817V13.59V15.5982L7.56246 15.7987C7.42952 15.9251 7.25334 15.9992 7.08594 15.9992C6.91853 15.9992 6.74236 15.9251 6.60941 15.7987L6.39844 15.5982V13.59V11.5817L6.60941 11.3813C6.74236 11.2548 6.91853 11.1808 7.08594 11.1808C7.25334 11.1808 7.42952 11.2548 7.56246 11.3813ZM11.8593 11.3813L12.0703 11.5817V13.59V15.5982L11.8593 15.7987C11.7264 15.9251 11.5502 15.9992 11.3828 15.9992C11.2154 15.9992 11.0392 15.9251 10.9063 15.7987L10.6953 15.5982V13.59V11.5817L10.9063 11.3813C11.0392 11.2548 11.2154 11.1808 11.3828 11.1808C11.5502 11.1808 11.7264 11.2548 11.8593 11.3813ZM16.1562 11.3813L16.3672 11.5817V13.59V15.5982L16.1562 15.7987C16.0233 15.9251 15.8471 15.9992 15.6797 15.9992C15.5123 15.9992 15.3361 15.9251 15.2032 15.7987L14.9922 15.5982V13.59V11.5817L15.2032 11.3813C15.3361 11.2548 15.5123 11.1808 15.6797 11.1808C15.8471 11.1808 16.0233 11.2548 16.1562 11.3813Z" fill="#2D2D47"/>
<path fill-rule="evenodd" clip-rule="evenodd" d="M20.5781 9.91257C20.5781 9.98247 19.9765 14.8022 19.8846 15.4683C19.7702 16.2979 19.5512 16.7342 19.1 17.0313L18.7452 17.265H11.3828H4.02046L3.67774 17.0393C3.20234 16.7262 2.99574 16.3273 2.88531 15.5091C2.78305 14.7505 2.1875 9.97472 2.1875 9.91257C2.1875 9.89141 6.32539 9.8741 11.3828 9.8741C16.4402 9.8741 20.5781 9.89141 20.5781 9.91257ZM5.67794 11.5212C5.75013 11.1782 6.2642 10.6274 6.59772 10.5357C7.3764 10.3216 8.04766 10.6099 8.38445 11.3033C8.5247 11.5921 8.54309 11.8568 8.54309 13.59C8.54309 15.3236 8.5247 15.5884 8.38394 15.8831C7.98312 16.7217 6.94552 16.9625 6.18445 16.3935C5.68567 16.0207 5.62895 15.743 5.62689 13.6614C5.62586 12.6227 5.64881 11.6597 5.67794 11.5212ZM10.0843 11.3033C10.2699 10.9211 10.5496 10.664 10.9102 10.5443C11.6324 10.3044 12.3444 10.6095 12.6813 11.3033C12.8216 11.5921 12.84 11.8568 12.84 13.59C12.84 15.3299 12.8219 15.5877 12.6794 15.8861C12.1555 16.9825 10.6151 16.9769 10.0835 15.8766C9.94422 15.5885 9.92566 15.3189 9.92566 13.59C9.92566 11.8568 9.94405 11.5921 10.0843 11.3033ZM14.3812 11.3033C14.5656 10.9235 14.8434 10.6668 15.207 10.54C15.5238 10.4296 16.1599 10.4866 16.4203 10.6488C16.5266 10.7149 16.7225 10.9047 16.8556 11.0704L17.0977 11.3718L17.1248 13.3774C17.1565 15.7137 17.1154 15.9488 16.6015 16.3668C15.8494 16.9786 14.8011 16.7472 14.3804 15.8766C14.2411 15.5885 14.2225 15.3189 14.2225 13.59C14.2225 11.8568 14.2409 11.5921 14.3812 11.3033Z" fill="#2D2D47"/>
<path d="M13.1875 2.19737V3.01404H12.4098C11.6075 3.01404 11.1962 3.12821 11.095 3.37893C11.067 3.44818 11.0386 3.85374 11.0319 4.28029C11.0252 4.70676 11.0113 5.05572 11.001 5.05572C10.9907 5.05572 10.861 4.89525 10.7128 4.69908C10.5645 4.50292 10.2486 4.2014 10.0106 4.029L9.57812 3.71548V2.54813V1.38069H11.3828H13.1875V2.19737Z" fill="#2D2D47"/>
<path d="M17.6391 1.47869C17.6958 1.53259 17.7422 1.63386 17.7422 1.70369C17.7422 1.90875 11.5215 7.77247 11.3399 7.73858C11.2555 7.72282 11.1437 7.64556 11.0917 7.567C11.0101 7.44384 11.4365 7.00627 14.1758 4.40238C15.9241 2.74045 17.3954 1.38069 17.4453 1.38069C17.4951 1.38069 17.5823 1.42479 17.6391 1.47869Z" fill="#2D2D47"/>
</svg>
