<svg width="23" height="27" viewBox="0 0 23 27" fill="none" xmlns="http://www.w3.org/2000/svg">
<path d="M10.9095 0.977209C9.30978 1.2827 8.10637 1.93952 7.10111 3.05457C5.96052 4.32746 5.35156 5.94658 5.35156 7.72354C5.35156 9.23064 5.7962 10.6206 6.65647 11.8172C7.88888 13.5279 9.73509 14.4902 11.7746 14.4902C13.5097 14.4902 15.061 13.8232 16.279 12.5554C17.0619 11.7357 17.55 10.916 17.8883 9.85691C18.1542 9.0168 18.2218 8.50255 18.1928 7.48933C18.159 6.27753 17.9947 5.60545 17.4727 4.55658C16.6269 2.84582 15.1239 1.60347 13.3018 1.11468C12.8862 1.00267 12.6929 0.982301 11.9244 0.972117C11.4315 0.961934 10.9772 0.967026 10.9095 0.977209Z" fill="#2D2D49"/>
<path d="M6.40198 14.5892C5.25432 14.8364 4.09208 15.3875 3.16811 16.1239C2.73045 16.469 1.96696 17.2724 1.63628 17.7308C1.3056 18.1892 0.809576 19.0647 0.688002 19.4201C0.55184 19.8012 0.58588 19.9196 1.02355 20.6201C2.2247 22.5411 3.97536 24.1943 5.89137 25.2192C7.0828 25.8578 8.21587 26.2595 9.58722 26.5222C10.2437 26.6509 10.3896 26.6612 11.7269 26.6612C13.0059 26.6664 13.2296 26.6509 13.7888 26.5479C16.4002 26.0638 18.5253 24.9771 20.4268 23.1488C21.5307 22.0879 22.9409 20.1411 22.9312 19.6879C22.9215 19.2965 22.2455 18.1222 21.5598 17.2879C20.4122 15.8973 18.6907 14.8724 16.9935 14.5583C16.3565 14.445 16.1425 14.4862 15.6367 14.8467C14.4891 15.6707 13.2101 16.0879 11.8242 16.093C10.375 16.1033 9.16414 15.7171 7.94354 14.8621C7.35026 14.445 7.19464 14.4192 6.40198 14.5892Z" fill="#2D2D49"/>
</svg>
